# xmcd
#
# Track frame offsets: 
#        150
#        15106
#        34039
#        51691
#        67105
#        86278
#        99877
#        128475
#        151455
#        163262
#
# Disc length: 2505 seconds
#
# Revision: 0
# Processed by: cddbd v1.5.2PL0 Copyright (c) Steve Scherf et al.
# Submitted via: ExactAudioCopy v0.99pb4
#
DISCID=7409c70a
DTITLE=Gogo, David - Vicksburg Call
DYEAR=2015
DGENRE=Blues
TTITLE0=Cuts Me To The Bone
TTITLE1=Fooling Myself
TTITLE2=The Loner
TTITLE3=There's A Hole
TTITLE4=Jet Set (Sigh)
TTITLE5=What's Not To Like?
TTITLE6=Our Last Goodbye
TTITLE7=Vicksburg Call
TTITLE8=Coulda Shoulda Woulda
TTITLE9=Why
EXTD=
EXTT0=
EXTT1=
EXTT2=
EXTT3=
EXTT4=
EXTT5=
EXTT6=
EXTT7=
EXTT8=
EXTT9=
PLAYORDER=
